<svg width="24" height="24" viewBox="0 0 24 24" fill="none" xmlns="http://www.w3.org/2000/svg">
<path d="M15.4708 13.4702C15.5395 13.3965 15.6223 13.3374 15.7143 13.2964C15.8063 13.2554 15.9056 13.2334 16.0063 13.2316C16.107 13.2298 16.207 13.2483 16.3004 13.286C16.3938 13.3238 16.4786 13.3799 16.5499 13.4511C16.6211 13.5224 16.6772 13.6072 16.7149 13.7006C16.7527 13.794 16.7712 13.894 16.7694 13.9947C16.7676 14.0954 16.7456 14.1947 16.7046 14.2867C16.6636 14.3787 16.6045 14.4615 16.5308 14.5302L12.5308 18.5302C12.3902 18.6706 12.1996 18.7495 12.0008 18.7495C11.8021 18.7495 11.6114 18.6706 11.4708 18.5302L7.47082 14.5302C7.39714 14.4615 7.33803 14.3787 7.29704 14.2867C7.25605 14.1947 7.23401 14.0954 7.23223 13.9947C7.23046 13.894 7.24898 13.794 7.2867 13.7006C7.32442 13.6072 7.38057 13.5224 7.45179 13.4511C7.523 13.3799 7.60784 13.3238 7.70123 13.286C7.79461 13.2483 7.89464 13.2298 7.99535 13.2316C8.09605 13.2334 8.19536 13.2554 8.28736 13.2964C8.37936 13.3374 8.46216 13.3965 8.53082 13.4702L11.2508 16.1902L11.2508 6.50017C11.2508 6.30126 11.3298 6.11049 11.4705 5.96984C11.6111 5.82919 11.8019 5.75017 12.0008 5.75017C12.1997 5.75017 12.3905 5.82919 12.5312 5.96984C12.6718 6.11049 12.7508 6.30126 12.7508 6.50017L12.7508 16.1902L15.4708 13.4702Z" fill="black"/>
</svg>
