<svg width="40" height="39" viewBox="0 0 40 39" fill="none" xmlns="http://www.w3.org/2000/svg">
<path d="M20.1992 3.25C18.0652 3.25 15.9522 3.67032 13.9806 4.48696C12.0091 5.3036 10.2177 6.50056 8.70873 8.00951C5.66127 11.057 3.94922 15.1902 3.94922 19.5C3.94922 26.6825 8.61297 32.7762 15.0642 34.9375C15.8767 35.0675 16.1367 34.5637 16.1367 34.125V31.3787C11.6355 32.3537 10.6767 29.2012 10.6767 29.2012C9.92922 27.3162 8.87297 26.8125 8.87297 26.8125C7.39422 25.805 8.98672 25.8375 8.98672 25.8375C10.6117 25.9512 11.473 27.5112 11.473 27.5112C12.8867 29.9812 15.2755 29.25 16.2017 28.86C16.348 27.8037 16.7705 27.0887 17.2255 26.6825C13.618 26.2762 9.83172 24.8787 9.83172 18.6875C9.83172 16.8837 10.4492 15.4375 11.5055 14.2837C11.343 13.8775 10.7742 12.1875 11.668 9.99375C11.668 9.99375 13.033 9.555 16.1367 11.6512C17.4205 11.2937 18.818 11.115 20.1992 11.115C21.5805 11.115 22.978 11.2937 24.2617 11.6512C27.3655 9.555 28.7305 9.99375 28.7305 9.99375C29.6242 12.1875 29.0555 13.8775 28.893 14.2837C29.9492 15.4375 30.5667 16.8837 30.5667 18.6875C30.5667 24.895 26.7642 26.26 23.1405 26.6662C23.7255 27.17 24.2617 28.1612 24.2617 29.6725V34.125C24.2617 34.5637 24.5217 35.0837 25.3505 34.9375C31.8017 32.76 36.4492 26.6825 36.4492 19.5C36.4492 17.366 36.0289 15.2529 35.2123 13.2814C34.3956 11.3099 33.1987 9.51847 31.6897 8.00951C30.1808 6.50056 28.3894 5.3036 26.4178 4.48696C24.4463 3.67032 22.3332 3.25 20.1992 3.25Z" fill="black"/>
</svg>
