<svg width="39" height="39" viewBox="0 0 39 39" fill="none" xmlns="http://www.w3.org/2000/svg">
<path d="M19.4961 14.2192C18.0954 14.2192 16.7521 14.7757 15.7617 15.7661C14.7713 16.7565 14.2148 18.0998 14.2148 19.5005C14.2148 20.9012 14.7713 22.2445 15.7617 23.2349C16.7521 24.2253 18.0954 24.7817 19.4961 24.7817C20.8968 24.7817 22.2401 24.2253 23.2305 23.2349C24.2209 22.2445 24.7773 20.9012 24.7773 19.5005C24.7773 18.0998 24.2209 16.7565 23.2305 15.7661C22.2401 14.7757 20.8968 14.2192 19.4961 14.2192Z" fill="black"/>
<path fill-rule="evenodd" clip-rule="evenodd" d="M11.0008 5.00788C16.6493 4.38214 22.3497 4.38214 27.9983 5.00788C31.0841 5.35238 33.572 7.78175 33.9344 10.879C34.6038 16.6066 34.6038 22.3927 33.9344 28.1203C33.572 31.2175 31.0841 33.6469 27.9999 33.993C22.3508 34.6189 16.6499 34.6189 11.0008 33.993C7.9149 33.6469 5.42702 31.2175 5.06465 28.1219C4.39512 22.3938 4.39512 16.6071 5.06465 10.879C5.42702 7.78175 7.9149 5.35238 11.0008 5.00788ZM27.6245 9.74963C27.1935 9.74963 26.7802 9.92084 26.4755 10.2256C26.1707 10.5303 25.9995 10.9437 25.9995 11.3746C25.9995 11.8056 26.1707 12.2189 26.4755 12.5237C26.7802 12.8284 27.1935 12.9996 27.6245 12.9996C28.0555 12.9996 28.4688 12.8284 28.7736 12.5237C29.0783 12.2189 29.2495 11.8056 29.2495 11.3746C29.2495 10.9437 29.0783 10.5303 28.7736 10.2256C28.4688 9.92084 28.0555 9.74963 27.6245 9.74963ZM11.7808 19.4996C11.7808 17.4525 12.594 15.4892 14.0415 14.0416C15.4891 12.5941 17.4524 11.7809 19.4995 11.7809C21.5467 11.7809 23.51 12.5941 24.9575 14.0416C26.405 15.4892 27.2183 17.4525 27.2183 19.4996C27.2183 21.5468 26.405 23.5101 24.9575 24.9576C23.51 26.4052 21.5467 27.2184 19.4995 27.2184C17.4524 27.2184 15.4891 26.4052 14.0415 24.9576C12.594 23.5101 11.7808 21.5468 11.7808 19.4996Z" fill="black"/>
</svg>
