<svg width="32" height="33" viewBox="0 0 32 33" fill="none" xmlns="http://www.w3.org/2000/svg">
<path d="M16.2354 29.6003C14.4533 29.6003 12.7689 29.2577 11.1824 28.5727C9.59584 27.8877 8.21054 26.9531 7.0265 25.7691C5.84246 24.585 4.90792 23.1997 4.22287 21.6132C3.53783 20.0266 3.19531 18.3423 3.19531 16.5601C3.19531 14.7563 3.53783 13.0667 4.22287 11.4914C4.90792 9.9162 5.84246 8.53612 7.0265 7.35121C8.21054 6.1663 9.59584 5.23175 11.1824 4.54758C12.7689 3.86341 14.4533 3.52089 16.2354 3.52002C18.0393 3.52002 19.7293 3.86254 21.3054 4.54758C22.8816 5.23262 24.2612 6.16717 25.4444 7.35121C26.6275 8.53525 27.5621 9.91533 28.248 11.4914C28.9339 13.0676 29.2764 14.7571 29.2756 16.5601C29.2756 18.3423 28.933 20.0266 28.248 21.6132C27.563 23.1997 26.6284 24.5855 25.4444 25.7704C24.2603 26.9553 22.8802 27.8898 21.3041 28.574C19.728 29.2582 18.0385 29.6003 16.2354 29.6003ZM16.2354 26.927C16.8005 26.1446 17.2895 25.3296 17.7025 24.482C18.1154 23.6344 18.4523 22.7325 18.7131 21.7762H13.7578C14.0186 22.7325 14.3555 23.6344 14.7684 24.482C15.1814 25.3296 15.6704 26.1446 16.2354 26.927ZM12.845 26.4054C12.4538 25.6882 12.1117 24.9436 11.8187 24.1717C11.5258 23.3997 11.2811 22.6012 11.0846 21.7762H7.23775C7.86802 22.8629 8.65608 23.8083 9.60193 24.6124C10.5478 25.4166 11.6288 26.0142 12.845 26.4054ZM19.6259 26.4054C20.8429 26.0142 21.9244 25.4166 22.8703 24.6124C23.8161 23.8083 24.6037 22.8629 25.2331 21.7762H21.3863C21.1907 22.6021 20.9464 23.401 20.6534 24.173C20.3605 24.9449 20.0179 25.6891 19.6259 26.4054ZM6.12934 19.1682H10.563C10.4978 18.7335 10.4491 18.3045 10.4169 17.8811C10.3848 17.4577 10.3683 17.0174 10.3674 16.5601C10.3665 16.1029 10.383 15.663 10.4169 15.2405C10.4508 14.818 10.4995 14.3885 10.563 13.9521H6.12934C6.02067 14.3868 5.93939 14.8162 5.88549 15.2405C5.83159 15.6647 5.80421 16.1046 5.80334 16.5601C5.80247 17.0157 5.82985 17.456 5.88549 17.8811C5.94113 18.3062 6.02241 18.7352 6.12934 19.1682ZM13.171 19.1682H19.2999C19.3651 18.7335 19.4142 18.3045 19.4472 17.8811C19.4803 17.4577 19.4963 17.0174 19.4955 16.5601C19.4946 16.1029 19.4781 15.663 19.4459 15.2405C19.4137 14.818 19.3651 14.3885 19.2999 13.9521H13.171C13.1058 14.3868 13.0571 14.8162 13.025 15.2405C12.9928 15.6647 12.9763 16.1046 12.9754 16.5601C12.9745 17.0157 12.9911 17.456 13.025 17.8811C13.0589 18.3062 13.1075 18.7352 13.171 19.1682ZM21.9079 19.1682H26.3415C26.4502 18.7335 26.5319 18.3045 26.5867 17.8811C26.6415 17.4577 26.6684 17.0174 26.6675 16.5601C26.6667 16.1029 26.6397 15.663 26.5867 15.2405C26.5337 14.818 26.4519 14.3885 26.3415 13.9521H21.9079C21.9731 14.3868 22.0222 14.8162 22.0552 15.2405C22.0883 15.6647 22.1044 16.1046 22.1035 16.5601C22.1026 17.0157 22.0861 17.456 22.0539 17.8811C22.0218 18.3062 21.9731 18.7352 21.9079 19.1682ZM21.3863 11.3441H25.2331C24.6028 10.2574 23.8152 9.31201 22.8703 8.50787C21.9253 7.70373 20.8438 7.10605 19.6259 6.71485C20.0171 7.43206 20.3596 8.17665 20.6534 8.94862C20.9473 9.7206 21.1916 10.5191 21.3863 11.3441ZM13.7578 11.3441H18.7131C18.4523 10.3878 18.1154 9.48588 17.7025 8.63827C17.2895 7.79066 16.8005 6.97565 16.2354 6.19325C15.6704 6.97565 15.1814 7.79066 14.7684 8.63827C14.3555 9.48588 14.0186 10.3878 13.7578 11.3441ZM7.23775 11.3441H11.0846C11.2802 10.5182 11.5249 9.7193 11.8187 8.94732C12.1126 8.17534 12.4547 7.43119 12.845 6.71485C11.6279 7.10605 10.5465 7.70373 9.60062 8.50787C8.65478 9.31201 7.86715 10.2574 7.23775 11.3441Z" fill="black"/>
</svg>
