<svg width="40" height="39" viewBox="0 0 40 39" fill="none" xmlns="http://www.w3.org/2000/svg">
<path d="M31.6758 4.875C32.5377 4.875 33.3644 5.21741 33.9739 5.8269C34.5834 6.4364 34.9258 7.26305 34.9258 8.125V30.875C34.9258 31.737 34.5834 32.5636 33.9739 33.1731C33.3644 33.7826 32.5377 34.125 31.6758 34.125H8.92578C8.06383 34.125 7.23718 33.7826 6.62768 33.1731C6.01819 32.5636 5.67578 31.737 5.67578 30.875V8.125C5.67578 7.26305 6.01819 6.4364 6.62768 5.8269C7.23718 5.21741 8.06383 4.875 8.92578 4.875H31.6758ZM30.8633 30.0625V21.45C30.8633 20.045 30.3052 18.6976 29.3117 17.7041C28.3182 16.7106 26.9708 16.1525 25.5658 16.1525C24.1845 16.1525 22.5758 16.9975 21.7958 18.265V16.4613H17.262V30.0625H21.7958V22.0513C21.7958 20.8 22.8033 19.7762 24.0545 19.7762C24.6579 19.7762 25.2366 20.0159 25.6632 20.4426C26.0898 20.8692 26.3295 21.4479 26.3295 22.0513V30.0625H30.8633ZM11.9808 13.91C12.7048 13.91 13.3992 13.6224 13.9112 13.1104C14.4232 12.5984 14.7108 11.904 14.7108 11.18C14.7108 9.66875 13.492 8.43375 11.9808 8.43375C11.2524 8.43375 10.5539 8.72309 10.0389 9.23811C9.52387 9.75313 9.23453 10.4516 9.23453 11.18C9.23453 12.6913 10.4695 13.91 11.9808 13.91ZM14.2395 30.0625V16.4613H9.73828V30.0625H14.2395Z" fill="black"/>
</svg>
