<svg width="32" height="33" viewBox="0 0 32 33" fill="none" xmlns="http://www.w3.org/2000/svg">
<path d="M10.0009 7.75828C10.0009 7.4989 10.1039 7.25014 10.2873 7.06673C10.4707 6.88331 10.7195 6.78027 10.9789 6.78027H26.627C26.8864 6.78027 27.1352 6.88331 27.3186 7.06673C27.502 7.25014 27.605 7.4989 27.605 7.75828C27.605 8.01767 27.502 8.26643 27.3186 8.44984C27.1352 8.63325 26.8864 8.73629 26.627 8.73629H10.9789C10.7195 8.73629 10.4707 8.63325 10.2873 8.44984C10.1039 8.26643 10.0009 8.01767 10.0009 7.75828ZM11.9569 23.4064C11.9569 23.147 12.0599 22.8983 12.2433 22.7149C12.4268 22.5315 12.6755 22.4284 12.9349 22.4284H26.627C26.8864 22.4284 27.1352 22.5315 27.3186 22.7149C27.502 22.8983 27.605 23.147 27.605 23.4064C27.605 23.6658 27.502 23.9146 27.3186 24.098C27.1352 24.2814 26.8864 24.3844 26.627 24.3844H12.9349C12.6755 24.3844 12.4268 24.2814 12.2433 24.098C12.0599 23.9146 11.9569 23.6658 11.9569 23.4064ZM5.11082 14.6043C4.85144 14.6043 4.60268 14.7074 4.41926 14.8908C4.23585 15.0742 4.13281 15.323 4.13281 15.5824C4.13281 15.8417 4.23585 16.0905 4.41926 16.2739C4.60268 16.4573 4.85144 16.5604 5.11082 16.5604H26.627C26.8864 16.5604 27.1352 16.4573 27.3186 16.2739C27.502 16.0905 27.605 15.8417 27.605 15.5824C27.605 15.323 27.502 15.0742 27.3186 14.8908C27.1352 14.7074 26.8864 14.6043 26.627 14.6043H5.11082Z" fill="black"/>
</svg>
