<svg width="40" height="39" viewBox="0 0 40 39" fill="none" xmlns="http://www.w3.org/2000/svg">
<path d="M5.47656 11.374C5.47656 10.5121 5.81897 9.68542 6.42847 9.07593C7.03796 8.46643 7.86461 8.12402 8.72656 8.12402H31.4766C32.3385 8.12402 33.1652 8.46643 33.7747 9.07593C34.3842 9.68542 34.7266 10.5121 34.7266 11.374V27.624C34.7266 28.486 34.3842 29.3126 33.7747 29.9221C33.1652 30.5316 32.3385 30.874 31.4766 30.874H8.72656C7.86461 30.874 7.03796 30.5316 6.42847 29.9221C5.81897 29.3126 5.47656 28.486 5.47656 27.624V11.374Z" stroke="black" stroke-width="3.25" stroke-linecap="round" stroke-linejoin="round"/>
<path d="M5.47656 11.374L20.1016 21.124L34.7266 11.374" stroke="black" stroke-width="3.25" stroke-linecap="round" stroke-linejoin="round"/>
</svg>
