<svg width="40" height="39" viewBox="0 0 40 39" fill="none" xmlns="http://www.w3.org/2000/svg">
<path d="M20.3984 3.25C11.4284 3.25 4.14844 10.53 4.14844 19.5C4.14844 28.47 11.4284 35.75 20.3984 35.75C29.3684 35.75 36.6484 28.47 36.6484 19.5C36.6484 10.53 29.3684 3.25 20.3984 3.25ZM27.9384 14.3C27.6947 16.8675 26.6384 23.1075 26.1022 25.9837C25.8747 27.2025 25.4197 27.6088 24.9972 27.6575C24.0547 27.7388 23.3397 27.04 22.4297 26.4388C20.9997 25.4963 20.1872 24.9113 18.8059 24.0013C17.1972 22.945 18.2372 22.36 19.1634 21.4175C19.4072 21.1737 23.5672 17.3875 23.6484 17.0462C23.6597 16.9946 23.6582 16.9409 23.6441 16.8899C23.6299 16.839 23.6035 16.7922 23.5672 16.7538C23.4697 16.6725 23.3397 16.705 23.2259 16.7212C23.0797 16.7537 20.8047 18.265 16.3684 21.255C15.7184 21.6938 15.1334 21.9212 14.6134 21.905C14.0284 21.8888 12.9234 21.58 12.0947 21.3037C11.0709 20.9788 10.2747 20.8 10.3397 20.2312C10.3722 19.9387 10.7784 19.6462 11.5422 19.3375C16.2872 17.2737 19.4397 15.9088 21.0159 15.2588C25.5334 13.3738 26.4597 13.0487 27.0772 13.0487C27.2072 13.0487 27.5159 13.0812 27.7109 13.2437C27.8734 13.3737 27.9222 13.5525 27.9384 13.6825C27.9222 13.78 27.9547 14.0725 27.9384 14.3Z" fill="black"/>
</svg>
